<?xml version="1.0" encoding="utf-8"?>
<!-- Generator: Adobe Illustrator 25.3.1, SVG Export Plug-In . SVG Version: 6.00 Build 0)  -->
<svg version="1.1" id="Layer_1" xmlns="http://www.w3.org/2000/svg" xmlns:xlink="http://www.w3.org/1999/xlink" x="0px" y="0px"
	 viewBox="0 0 34.7 34.7" style="enable-background:new 0 0 34.7 34.7;" xml:space="preserve">
<style type="text/css">
	.st0{fill:#254DC2;}
</style>
<path class="st0" d="M17.3,34.7c9.6,0,17.3-7.8,17.3-17.3S26.9,0,17.3,0C9.7,0,0,7.8,0,17.3C0,26.9,7.8,34.7,17.3,34.7L17.3,34.7z
	 M29.3,17.8c-0.6,0.5-1.4,0.5-2,0l-7.6-7.1c-0.2-0.2-0.5-0.2-0.7,0c-0.1,0.1-0.1,0.2-0.1,0.3V28c-0.1,0.8-0.8,1.4-1.6,1.3
	C16.6,29.3,16,28.7,16,28V12.7c-0.1-0.7-0.7-1.2-1.4-1.2c-0.3,0-0.6,0.1-0.8,0.4l-4.9,4.5c-0.6,0.5-1.4,0.5-2,0
	c-0.5-0.5-0.6-1.3-0.1-1.8c0,0,0.1-0.1,0.1-0.1l9.5-8.8l0,0c0.1-0.1,0.3-0.2,0.5-0.3c0.2-0.1,0.4-0.1,0.6-0.1c0.2,0,0.4,0,0.6,0.1
	c0.2,0.1,0.3,0.2,0.5,0.3l0,0l10.9,10.2C29.9,16.3,29.9,17.1,29.3,17.8C29.4,17.7,29.4,17.7,29.3,17.8z"/>
</svg>
