<?xml version="1.0" encoding="utf-8"?>
<!-- Generator: Adobe Illustrator 25.3.1, SVG Export Plug-In . SVG Version: 6.00 Build 0)  -->
<svg version="1.1" id="Layer_1" xmlns="http://www.w3.org/2000/svg" xmlns:xlink="http://www.w3.org/1999/xlink" x="0px" y="0px"
	 viewBox="0 0 88.4 74.2" style="enable-background:new 0 0 88.4 74.2;" xml:space="preserve">
<style type="text/css">
	.st0{fill-rule:evenodd;clip-rule:evenodd;fill:#FFFFFF;}
</style>
<path class="st0" d="M43.8,14.3L29.7,25.8c-1.8,1.9-4,3.3-6.5,4.1l-9.6,2.9c-1.3,0.5-2.2,1.8-2.2,3.3l-0.3,12.1
	c-0.1,1.8,1.1,3.3,2.6,3.2l9.1-0.3c2.9-0.1,5.7,0.7,8,2.4L44.2,63c1.8,1.3,4.1-0.5,4.1-3.1l-0.2-43.3C48.1,13.8,45.6,12.5,43.8,14.3
	z M38.4,3.1c7.8-7,19.2-1.4,19.4,9.6l1,47.3C59,70.6,48.6,77.7,40.4,72.4L25,62.4c-0.4-0.3-0.9-0.4-1.4-0.4l-9.4,0.3
	C7.5,62.5,2.2,56.5,2.3,49l0.2-15.1c0.1-6.3,4.1-11.8,9.6-13.3l9.1-2.4c0.4-0.1,0.8-0.3,1.1-0.7L38.4,3.1z"/>
<path class="st0" d="M0.7,12.8l76.7,51.6c0.4,0.3,0.9,0.3,1.3,0.1l8.5-3.5c1-0.4,1.4-1.5,1-2.5c-0.1-0.3-0.3-0.6-0.6-0.8L2.4,9.6
	C1.8,9.3,1.1,9.4,0.7,9.9l0,0c-0.8,0.7-0.9,1.9-0.2,2.7C0.5,12.6,0.6,12.7,0.7,12.8z"/>
</svg>
