<svg id="Layer_1" data-name="Layer 1" xmlns="http://www.w3.org/2000/svg" viewBox="0 0 64 64"><defs><style>.cls-1{fill:#ee7d7a;fill-rule:evenodd;}</style></defs><path class="cls-1" d="M61,0H23.41a3.07,3.07,0,0,0-3,2.83L17,39.94c-.2,2.29-2.72,3.6-4.9,3-.23-.07-.47-.12-.7-.18A9.91,9.91,0,0,0,3.68,44C1.09,45.74-.08,48.82,0,52.59.1,56.73,1.31,60,3.76,62a9.15,9.15,0,0,0,8,1.69,14.2,14.2,0,0,0,6.88-3.84A10.68,10.68,0,0,0,22,52.68l3.94-43.6a3.07,3.07,0,0,1,3-2.84h25.3a3.09,3.09,0,0,1,3,3.41L54.57,40c-.21,2.29-2.72,3.6-4.88,3-.32-.09-.63-.16-.95-.23a10.22,10.22,0,0,0-7.85,1.16c-2.63,1.76-3.86,4.85-3.77,8.65.1,4.16,1.35,7.46,3.85,9.48a9.49,9.49,0,0,0,8.11,1.67,14.66,14.66,0,0,0,7-3.82,10.59,10.59,0,0,0,3.45-7.24L64,3.41A3.1,3.1,0,0,0,61,0Z" transform="translate(0)"/></svg>