<svg id="Layer_1" data-name="Layer 1" xmlns="http://www.w3.org/2000/svg" viewBox="0 0 24.06 23.37"><defs><style>.cls-1{fill:#171443;fill-rule:evenodd;}</style></defs><path class="cls-1" d="M.34,12,10.51,1.05a1.27,1.27,0,0,1,1.89,0,1.54,1.54,0,0,1,0,2.05L5.27,10.74a.5.5,0,0,0,.32.84l17.08,0a1.46,1.46,0,0,1,0,2.9l-15.31,0a1.3,1.3,0,0,0-.84,2.19L11,21.53a1.54,1.54,0,0,1,0,2,1.27,1.27,0,0,1-1.89,0L.33,14.05h0A1.58,1.58,0,0,1,0,13.58,1.47,1.47,0,0,1-.06,13a1.45,1.45,0,0,1,.1-.55A1.36,1.36,0,0,1,.33,12Z" transform="translate(0.06 -0.63)"/></svg>