<?xml version="1.0" encoding="utf-8"?>
<!-- Generator: Adobe Illustrator 25.3.1, SVG Export Plug-In . SVG Version: 6.00 Build 0)  -->
<svg version="1.1" id="Layer_1" xmlns="http://www.w3.org/2000/svg" xmlns:xlink="http://www.w3.org/1999/xlink" x="0px" y="0px"
	 viewBox="0 0 96.1 74.2" style="enable-background:new 0 0 96.1 74.2;" xml:space="preserve">
<style type="text/css">
	.st0{fill-rule:evenodd;clip-rule:evenodd;fill:#FFFFFF;}
</style>
<path class="st0" d="M41.2,16.7L27.2,29.3c-1.8,1.7-4.1,2.9-6.5,3.5l-9.6,2.5c-1.3,0.4-2.2,1.6-2.1,3l-0.1,8.3
	c-0.1,1.5,1,2.8,2.5,2.9c0.1,0,0.1,0,0.2,0l9-0.2c2.8-0.1,5.6,0.7,8,2.3l13.5,8.8c1.8,1.2,4.1-0.4,4.1-2.8l-0.8-38.9
	C45.4,16.4,42.9,15.2,41.2,16.7z M36.1,3.1c7.8-7,19.2-1.4,19.4,9.6L56.4,60c0.2,10.6-10.2,17.7-18.3,12.4l-15.4-10
	c-0.4-0.3-0.9-0.5-1.4-0.5l-9.4,0.3C5.3,62.4,0,56.5,0,49l0.2-15.1C0.4,27.6,4.4,22,9.9,20.6l9.1-2.4c0.4-0.1,0.8-0.3,1.1-0.6
	L36.1,3.1z"/>
<path class="st0" d="M64.6,18.4c2.2-2.4,5.2-1.8,6.7,1.4c3,6.3,3.7,13.6,3.5,19.2c-0.1,2.6-0.3,5.1-0.7,7.6
	c-0.2,1.1-0.4,2.1-0.7,3.1C73.1,50.8,72.6,52,72,53c-1.9,3-4.9,3.3-6.8,0.6c-1.7-2.4-1.9-6.4-0.5-9.3c0-0.2,0.1-0.4,0.2-0.8
	c0.2-1.4,0.4-2.9,0.4-4.3c0.2-3.7-0.5-7.3-1.9-10.7C61.9,25.3,62.4,20.8,64.6,18.4z M64.6,44.5C64.6,44.6,64.6,44.6,64.6,44.5z"/>
<path class="st0" d="M81.1,8c3.2-3.6,7.6-2.7,9.8,2.1c4.3,9.5,5.4,20.3,5.2,28.7c-0.1,3.8-0.4,7.6-1.1,11.4c-0.3,1.6-0.6,3.2-1,4.6
	c-0.5,1.8-1.2,3.4-2.1,5c-2.7,4.5-7.2,4.9-10,0.9c-2.5-3.6-2.8-9.5-0.8-14c0.1-0.2,0.2-0.6,0.2-1.2c0.4-2.1,0.5-4.3,0.6-6.5
	c0.1-5.3-0.6-11.2-2.7-16S77.9,11.6,81.1,8z M81.1,47.1C81.1,47.3,81.1,47.3,81.1,47.1z"/>
</svg>
